name analog
datacolumns 19
datarows 23
range 0.0 0.011
endheader
time	ground_force_vx	ground_force_vy	ground_force_vz	ground_force_px	ground_force_py	ground_force_pz	l_ground_force_vx	l_ground_force_vy	l_ground_force_vz	l_ground_force_px	l_ground_force_py	l_ground_force_pz	ground_torque_x	ground_torque_y	ground_torque_z	l_ground_torque_x	l_ground_torque_y	l_ground_torque_z
0.0	-0.0	-0.0	-0.0	-15.558932304382324	34.3465576171875	-525.5974731445312	8.386832237243652	-29.51504135131836	-463.6116943359375	-0.0	-0.0	-0.0	-0.0	-0.0	-0.0	143520.421875	-22766.763671875	3466.71044921875
0.0005	-0.0	-0.0	-0.0	-15.375536918640137	33.95391082763672	-523.6607666015625	8.564449310302734	-29.21863555908203	-465.2919921875	-0.0	-0.0	-0.0	-0.0	-0.0	-0.0	143103.09375	-22766.91796875	3404.5537109375
0.001	-0.0	-0.0	-0.0	-15.295403480529783	33.72252655029297	-522.1931762695312	8.451766967773438	-29.459392547607425	-466.053466796875	-0.0	-0.0	-0.0	-0.0	-0.0	-0.0	143999.40625	-22535.02734375	3364.015869140625
0.0015	-0.0	-0.0	-0.0	-15.549445152282717	33.25001907348633	-522.2296752929688	8.718027114868164	-29.450916290283203	-466.1788330078125	-0.0	-0.0	-0.0	-0.0	-0.0	-0.0	143986.90625	-22668.412109375	3488.319091796875
0.002	-0.0	-0.0	-0.0	-15.43341827392578	33.27252960205078	-522.2298583984375	9.089783668518066	-29.539043426513672	-468.21234130859375	-0.0	-0.0	-0.0	-0.0	-0.0	-0.0	144293.65625	-22610.23046875	3488.577392578125
0.0025	-0.0	-0.0	-0.0	-15.290085792541504	32.74992752075195	-521.2935791015625	8.772625923156738	-29.764408111572266	-468.4938659667969	-0.0	-0.0	-0.0	-0.0	-0.0	-0.0	144642.09375	-22850.5859375	3520.46923828125
0.003	-0.0	-0.0	-0.0	-15.286012649536133	32.8271484375	-519.6657104492188	9.477537155151367	-29.99752426147461	-470.3358154296875	-0.0	-0.0	-0.0	-0.0	-0.0	-0.0	144967.984375	-22625.357421875	3542.26611328125
0.0035	-0.0	-0.0	-0.0	-15.31692886352539	32.50534439086914	-518.252197265625	9.055611610412598	-30.015213012695312	-471.15924072265625	-0.0	-0.0	-0.0	-0.0	-0.0	-0.0	145072.453125	-22764.82421875	3607.148681640625
0.004	-0.0	-0.0	-0.0	-15.162318229675291	31.88128471374512	-520.4786376953125	9.396449089050291	-30.092830657958984	-471.9275512695313	-0.0	-0.0	-0.0	-0.0	-0.0	-0.0	145478.625	-22729.40625	3558.723876953125
0.0045000000000000005	-0.0	-0.0	-0.0	-15.464262008666992	31.991182327270508	-518.4681396484375	9.701294898986816	-29.916088104248047	-474.0682678222656	-0.0	-0.0	-0.0	-0.0	-0.0	-0.0	145776.765625	-22935.783203125	3660.87353515625
0.005	-0.0	-0.0	-0.0	-15.316547393798828	31.85030174255371	-519.5277099609375	9.549013137817385	-29.89085578918457	-473.3761291503906	-0.0	-0.0	-0.0	-0.0	-0.0	-0.0	145803.34375	-22928.0234375	3675.35205078125
0.0055	-0.0	-0.0	-0.0	-15.110210418701172	31.755266189575195	-519.064453125	9.758186340332031	-30.06092071533203	-473.12542724609375	-0.0	-0.0	-0.0	-0.0	-0.0	-0.0	146133.03125	-22833.48828125	3698.83740234375
0.006	-0.0	-0.0	-0.0	-15.377645492553713	32.08417510986328	-521.4149780273438	9.859307289123535	-29.84037399291992	-473.72308349609375	-0.0	-0.0	-0.0	-0.0	-0.0	-0.0	146215.515625	-22665.62890625	3671.343505859375
0.006500000000000001	-0.0	-0.0	-0.0	-15.61695384979248	32.1506233215332	-520.8395385742188	9.758186340332031	-30.0174503326416	-475.19537353515625	-0.0	-0.0	-0.0	-0.0	-0.0	-0.0	146377.3125	-22712.103515625	3717.8759765625
0.007	-0.0	-0.0	-0.0	-15.583688735961914	32.05406951904297	-520.3549194335938	10.113029479980469	-29.63893318176269	-474.8233337402344	-0.0	-0.0	-0.0	-0.0	-0.0	-0.0	146426.46875	-22418.37109375	3707.6689453125
0.0075	-0.0	-0.0	-0.0	-15.43341827392578	32.20875930786133	-521.4319458007812	10.19607639312744	-29.587764739990234	-473.69720458984375	-0.0	-0.0	-0.0	-0.0	-0.0	-0.0	146561.296875	-22430.8828125	3597.71044921875
0.008	-0.0	-0.0	-0.0	-14.871773719787598	32.028194427490234	-520.7076416015625	9.909668922424316	-29.6190128326416	-474.4970703125	-0.0	-0.0	-0.0	-0.0	-0.0	-0.0	146510.15625	-22381.154296875	3580.199462890625
0.0085	-0.0	-0.0	-0.0	-15.311983108520508	32.02628326416016	-521.4063720703125	9.867634773254396	-29.73848533630371	-473.9012145996094	-0.0	-0.0	-0.0	-0.0	-0.0	-0.0	146411.5625	-22407.81640625	3510.2998046875
0.009000000000000001	-0.0	-0.0	-0.0	-15.135496139526367	32.324073791503906	-522.706298828125	9.726917266845703	-30.0554313659668	-475.1123962402344	-0.0	-0.0	-0.0	-0.0	-0.0	-0.0	146352.28125	-22083.462890625	3531.0087890625
0.0095	-0.0	-0.0	-0.0	-15.076576232910156	32.71086120605469	-520.9520263671875	9.825501441955566	-30.008071899414062	-474.0444030761719	-0.0	-0.0	-0.0	-0.0	-0.0	-0.0	146415.109375	-21965.283203125	3569.4853515625
0.01	-0.0	-0.0	-0.0	-14.721055030822754	32.7135009765625	-521.0546875	9.758186340332031	-30.046180725097656	-473.69482421875	-0.0	-0.0	-0.0	-0.0	-0.0	-0.0	146094.125	-22123.17578125	3529.328857421875
0.0105	-0.0	-0.0	-0.0	-14.748735427856444	32.591651916503906	-521.1699829101562	10.055402755737305	-30.06031990051269	-474.5149230957031	-0.0	-0.0	-0.0	-0.0	-0.0	-0.0	146158.0	-22010.62109375	3489.478515625
0.011	-0.0	-0.0	-0.0	-14.421133041381836	32.53075408935547	-520.7097778320312	10.21967315673828	-30.14423942565918	-474.4798889160156	-0.0	-0.0	-0.0	-0.0	-0.0	-0.0	146212.09375	-21905.546875	3624.62109375
